<svg width="22" height="22" viewBox="0 0 22 22" fill="none" xmlns="http://www.w3.org/2000/svg">
<path d="M21.4241 3.97513C21.3577 3.88068 21.2568 3.82566 21.1501 3.82576H19.7501V2.6371C19.7501 2.41829 19.5933 2.24088 19.4001 2.24088H14.15V1.05222C14.15 0.833413 13.9933 0.656006 13.8 0.656006H5.40001C5.20673 0.656006 5.05001 0.833413 5.05001 1.05222V3.82576H3.82851L3.68291 2.40848C3.5804 1.40961 2.83311 0.656105 1.9448 0.656006H0.850001C0.656713 0.656006 0.5 0.833413 0.5 1.05222C0.5 1.27104 0.656713 1.44844 0.850001 1.44844H1.9448C2.47786 1.44844 2.92634 1.90058 2.98781 2.50001L4.56001 17.9205C4.65552 18.8465 5.31041 19.5705 6.13047 19.6567C6.31645 20.9511 7.39419 21.8298 8.5376 21.6192C9.42236 21.4562 10.1179 20.6748 10.2685 19.6745H13.8315C14.0248 20.9691 15.1086 21.8412 16.2522 21.6224C17.3958 21.4036 18.1661 20.1767 17.9728 18.8821C17.7795 17.5875 16.6958 16.7154 15.5522 16.9342C14.6709 17.1029 13.9805 17.8845 13.8315 18.8821H10.2685C10.075 17.5891 8.99225 16.7185 7.85011 16.9375C6.97616 17.1051 6.28959 17.8765 6.13502 18.8646C5.66956 18.7833 5.30945 18.3601 5.25511 17.8305L4.95936 14.9199H15.7089C17.8304 14.9286 19.6729 13.2692 20.1424 10.9272L21.4913 4.31033C21.5148 4.19281 21.4901 4.06958 21.4241 3.97513ZM15.9 17.6934C16.6732 17.6934 17.3 18.403 17.3 19.2783C17.3 20.1536 16.6732 20.8632 15.9 20.8632C15.1268 20.8632 14.5 20.1536 14.5 19.2783C14.5 18.403 15.1268 17.6934 15.9 17.6934ZM8.20002 17.6934C8.97322 17.6934 9.60003 18.403 9.60003 19.2783C9.60003 20.1536 8.97322 20.8632 8.20002 20.8632C7.42683 20.8632 6.80002 20.1536 6.80002 19.2783C6.80002 18.403 7.42683 17.6934 8.20002 17.6934ZM19.0501 3.03332V3.82576H14.15V3.03332H19.0501ZM5.75002 1.44844H13.45V3.82576H5.75002V1.44844ZM19.4603 10.7493C19.063 12.731 17.504 14.135 15.7089 14.1275H4.87886L3.90971 4.6182H20.7098L19.4603 10.7493Z" fill="#01628F"/>
</svg>
