<svg width="26" height="27" viewBox="0 0 26 27" fill="none" xmlns="http://www.w3.org/2000/svg">
<path d="M0.241951 22.0454C0.454768 22.1537 5.51241 24.6982 10.6786 24.6982C11.977 24.6931 13.2715 24.5655 14.5424 24.3173L15.8888 25.574C15.9319 25.6142 15.9831 25.6462 16.0394 25.6679C16.0958 25.6897 16.1561 25.7009 16.2171 25.7009C16.2781 25.7009 16.3385 25.6897 16.3948 25.6679C16.4512 25.6462 16.5023 25.6142 16.5455 25.574L17.4491 24.7306C17.5134 24.757 17.578 24.7821 17.643 24.8059V25.9982C17.643 26.1131 17.6919 26.2233 17.779 26.3046C17.866 26.3859 17.9841 26.4315 18.1073 26.4315H20.893C21.0161 26.4315 21.1342 26.3859 21.2213 26.3046C21.3083 26.2233 21.3573 26.1131 21.3573 25.9982V24.8059C21.4223 24.782 21.4869 24.7569 21.5512 24.7305L22.4548 25.5739C22.4979 25.6142 22.5491 25.6461 22.6054 25.6679C22.6617 25.6897 22.7221 25.7009 22.7831 25.7009C22.8441 25.7009 22.9045 25.6897 22.9608 25.6679C23.0171 25.6461 23.0683 25.6142 23.1114 25.5739L25.0812 23.7355C25.1244 23.6952 25.1586 23.6474 25.1819 23.5949C25.2052 23.5423 25.2172 23.4859 25.2172 23.429C25.2172 23.3721 25.2052 23.3158 25.1819 23.2632C25.1586 23.2106 25.1244 23.1629 25.0812 23.1226L24.1776 22.2793C24.2059 22.2193 24.2328 22.159 24.2583 22.0983H25.5357C25.6588 22.0983 25.7769 22.0527 25.864 21.9714C25.9511 21.8901 26 21.7799 26 21.665V19.0651C26 18.9501 25.9511 18.8399 25.864 18.7587C25.7769 18.6774 25.6588 18.6317 25.5357 18.6317H24.2581C24.2327 18.5711 24.2058 18.5108 24.1774 18.4508L25.0811 17.6074C25.1242 17.5672 25.1584 17.5194 25.1817 17.4668C25.205 17.4143 25.2171 17.3579 25.2171 17.301C25.2171 17.2441 25.205 17.1878 25.1817 17.1352C25.1584 17.0826 25.1242 17.0348 25.0811 16.9946L23.1113 15.1561C23.0682 15.1159 23.017 15.084 22.9606 15.0622C22.9043 15.0404 22.8439 15.0292 22.7829 15.0292C22.722 15.0292 22.6616 15.0404 22.6052 15.0622C22.5489 15.084 22.4977 15.1159 22.4546 15.1561L21.551 15.9993C21.4867 15.9729 21.4221 15.9478 21.3571 15.924V14.7319C21.3571 14.6169 21.3082 14.5067 21.2212 14.4255C21.1341 14.3442 21.016 14.2985 20.8929 14.2985H19.1228C17.6483 12.2451 15.5726 10.8464 13.2036 10.2666C14.3196 9.73706 15.212 8.87214 15.7369 7.81131C16.2618 6.75047 16.3885 5.55556 16.0967 4.41928C15.8048 3.28299 15.1114 2.27156 14.1283 1.54809C13.1452 0.824625 11.9296 0.43129 10.6776 0.431519C9.42564 0.431747 8.21024 0.825526 7.22741 1.54935C6.24458 2.27318 5.55161 3.28486 5.26025 4.42126C4.96889 5.55765 5.09612 6.75251 5.62143 7.81315C6.14674 8.87379 7.03951 9.73839 8.15576 10.2675C6.23129 10.7388 4.49051 11.7521 3.10613 13.2342C1.10309 15.3786 0 18.3727 0 21.665C6.75456e-07 21.7428 0.0224695 21.8192 0.0650449 21.8862C0.10762 21.9531 0.16873 22.0081 0.241951 22.0454ZM18.5714 16.2305V15.1652H20.4286V16.2305C20.4286 16.3227 20.4601 16.4125 20.5185 16.4869C20.577 16.5612 20.6593 16.6162 20.7536 16.6439C20.9874 16.7128 21.2142 16.8009 21.4314 16.9071C21.519 16.9499 21.619 16.9654 21.7167 16.9514C21.8144 16.9375 21.9048 16.8948 21.9748 16.8295L22.783 16.0752L24.0964 17.301L23.2884 18.0551C23.2185 18.1204 23.1727 18.2047 23.1578 18.2959C23.1428 18.3871 23.1594 18.4804 23.2052 18.5622C23.319 18.765 23.4133 18.9768 23.4871 19.1951C23.5167 19.283 23.5756 19.3599 23.6553 19.4144C23.735 19.469 23.8312 19.4984 23.93 19.4984H25.0714V21.2317H23.93C23.8312 21.2317 23.7349 21.2611 23.6553 21.3156C23.5756 21.3702 23.5166 21.447 23.487 21.535C23.4132 21.7532 23.3188 21.965 23.205 22.1677C23.1592 22.2495 23.1426 22.3428 23.1575 22.434C23.1725 22.5252 23.2183 22.6095 23.2882 22.6748L24.0964 23.429L22.783 24.6549L21.975 23.9008C21.9051 23.8355 21.8147 23.7928 21.717 23.7789C21.6192 23.7649 21.5193 23.7804 21.4317 23.8231C21.2144 23.9293 20.9876 24.0174 20.7538 24.0864C20.6596 24.1141 20.5772 24.1691 20.5188 24.2434C20.4603 24.3178 20.4288 24.4076 20.4288 24.4998V25.5649H18.5714V24.4996C18.5714 24.4073 18.5399 24.3175 18.4815 24.2432C18.423 24.1688 18.3407 24.1138 18.2464 24.0862C18.0126 24.0172 17.7858 23.9291 17.5686 23.8229C17.481 23.7802 17.381 23.7647 17.2833 23.7786C17.1856 23.7926 17.0952 23.8353 17.0252 23.9005L16.217 24.6549L14.9036 23.429L15.7116 22.675C15.7815 22.6097 15.8273 22.5253 15.8422 22.4341C15.8572 22.3429 15.8406 22.2496 15.7948 22.1679C15.681 21.9651 15.5867 21.7533 15.5129 21.535C15.4833 21.447 15.4244 21.3702 15.3447 21.3156C15.265 21.2611 15.1688 21.2317 15.07 21.2317H13.9286V19.4984H15.07C15.1688 19.4984 15.2651 19.469 15.3447 19.4144C15.4244 19.3599 15.4834 19.283 15.513 19.1951C15.5868 18.9768 15.6812 18.7651 15.795 18.5624C15.8408 18.4806 15.8574 18.3873 15.8425 18.2961C15.8275 18.2049 15.7817 18.1205 15.7118 18.0553L14.9036 17.301L16.217 16.0752L17.025 16.8293C17.0949 16.8945 17.1853 16.9372 17.283 16.9512C17.3808 16.9652 17.4807 16.9497 17.5683 16.9069C17.7855 16.8007 18.0124 16.7126 18.2462 16.6437C18.3405 16.6161 18.4228 16.5611 18.4813 16.4868C18.5398 16.4125 18.5714 16.3227 18.5714 16.2305ZM6.03571 5.63213C6.03571 4.7751 6.30801 3.93732 6.81818 3.22472C7.32834 2.51213 8.05346 1.95673 8.90183 1.62876C9.7502 1.30079 10.6837 1.21498 11.5843 1.38218C12.485 1.54938 13.3123 1.96208 13.9616 2.56809C14.6109 3.1741 15.0531 3.9462 15.2322 4.78676C15.4114 5.62732 15.3194 6.49858 14.968 7.29037C14.6166 8.08216 14.0215 8.75892 13.258 9.23505C12.4945 9.71119 11.5968 9.96533 10.6786 9.96533C9.44764 9.96403 8.26752 9.50708 7.39712 8.69472C6.52672 7.88237 6.03711 6.78096 6.03571 5.63213ZM3.80592 13.8037C5.59592 11.8874 8.03667 10.832 10.6786 10.832C13.566 10.832 16.1894 12.0907 17.9933 14.3122C17.8932 14.3358 17.8044 14.3899 17.7409 14.4659C17.6775 14.5419 17.643 14.6355 17.6429 14.7319V15.9242C17.5779 15.948 17.5132 15.9731 17.449 15.9995L16.5453 15.1561C16.5022 15.1159 16.451 15.084 16.3947 15.0622C16.3384 15.0404 16.278 15.0292 16.217 15.0292C16.156 15.0292 16.0956 15.0404 16.0393 15.0622C15.983 15.084 15.9318 15.1159 15.8887 15.1561L13.9189 16.9946C13.8758 17.0348 13.8416 17.0826 13.8182 17.1352C13.7949 17.1878 13.7829 17.2441 13.7829 17.301C13.7829 17.3579 13.7949 17.4143 13.8182 17.4668C13.8416 17.5194 13.8758 17.5672 13.9189 17.6074L14.8225 18.4508C14.7942 18.5108 14.7673 18.5711 14.7418 18.6317H13.4643C13.3411 18.6317 13.2231 18.6774 13.136 18.7587C13.0489 18.8399 13 18.9501 13 19.0651V21.665C13 21.7799 13.0489 21.8901 13.136 21.9714C13.2231 22.0527 13.3411 22.0983 13.4643 22.0983H14.7419C14.7673 22.159 14.7942 22.2193 14.8226 22.2793L13.9189 23.1226C13.8578 23.1794 13.8149 23.2511 13.7952 23.3294C13.7754 23.4078 13.7796 23.4898 13.8072 23.5661C12.7746 23.7394 11.7277 23.8283 10.6786 23.8316C6.37302 23.8316 1.99683 21.9042 0.931067 21.4026C0.98742 18.424 2.00322 15.7339 3.80592 13.8037Z" fill="#01628F"/>
</svg>
