<svg width="26" height="27" viewBox="0 0 26 27" fill="none" xmlns="http://www.w3.org/2000/svg">
<path d="M25.3178 20.3559L24.3078 19.683C26.5855 15.6767 26.56 10.7612 24.241 6.77866C21.9221 2.79615 17.6598 0.347974 13.0515 0.351782C12.8122 0.351782 12.6182 0.545751 12.6182 0.785064C12.6182 1.02438 12.8122 1.21835 13.0515 1.21835C17.3397 1.21515 21.3077 3.48758 23.4752 7.18802C25.6427 10.8884 25.6842 15.4611 23.5843 19.2003L20.0536 16.8462C19.3857 16.4045 18.4907 16.5499 17.9968 17.1802L16.4657 19.1513C16.2685 19.4109 15.9106 19.4862 15.6256 19.3281L15.334 19.1673C14.3673 18.6404 13.1646 17.9844 10.7413 15.5601C8.31804 13.1358 7.66078 11.9321 7.1339 10.9672L6.97401 10.6756C6.81351 10.3906 6.88744 10.0309 7.1473 9.83235L9.11692 8.29979C9.74712 7.80598 9.89269 6.91098 9.45141 6.24291L5.94193 0.980049C5.48964 0.299786 4.58231 0.0955602 3.88219 0.516453L1.68161 1.83844C0.990173 2.24496 0.482893 2.90334 0.26614 3.67561C-0.526286 6.56311 0.0698481 11.5465 7.41031 18.8883C10.6078 22.0861 13.3569 24.0012 15.6814 25.0845C12.1037 25.8929 8.35257 25.0276 5.4904 22.7337C2.62824 20.4397 0.966665 16.9669 0.976261 13.2988C0.976261 13.0595 0.782306 12.8655 0.543009 12.8655C0.303712 12.8655 0.109757 13.0595 0.109757 13.2988C0.116459 20.4448 5.90604 26.2367 13.0515 26.2458C14.3902 26.2462 15.7207 26.0366 16.9943 25.6244C18.1433 26.0536 19.3578 26.2814 20.5843 26.2978C21.2719 26.3007 21.9569 26.2113 22.6207 26.0318C23.3931 25.8152 24.0515 25.3079 24.4577 24.6162L25.781 22.4168C26.2024 21.7164 25.9983 20.8085 25.3178 20.3559ZM25.0361 21.9708L23.7159 24.1715C23.424 24.6716 22.9498 25.0392 22.3927 25.1971C21.1324 25.5438 19.4253 25.5871 17.2316 24.7964C17.1968 24.7769 17.1595 24.7623 17.1207 24.753C14.6944 23.8522 11.6819 21.9323 8.02203 18.2735C0.977124 11.2285 0.370124 6.57093 1.10193 3.90487C1.26014 3.34794 1.62764 2.87374 2.12745 2.58156L4.32804 1.2613C4.63182 1.07851 5.02562 1.16711 5.22186 1.46233L7.12826 4.32469L8.72834 6.72473C8.91996 7.01452 8.85701 7.40291 8.58364 7.61735L6.61357 9.1499C6.01403 9.60837 5.84282 10.4379 6.21195 11.0963L6.36838 11.3805C6.92212 12.3962 7.61056 13.6597 10.124 16.1729C12.6374 18.686 13.9004 19.3745 14.9155 19.9282L15.2001 20.0851C15.8584 20.4542 16.6879 20.283 17.1464 19.6834L18.6788 17.7132C18.8933 17.44 19.2815 17.3771 19.5714 17.5685L24.8334 21.0782C25.1287 21.2737 25.218 21.6669 25.0361 21.9708Z" fill="#01628F"/>
</svg>
