<svg width="27" height="27" viewBox="0 0 27 27" fill="none" xmlns="http://www.w3.org/2000/svg">
<path d="M26.8261 24.502L24.8571 8.24034C24.8308 8.02232 24.6427 7.85814 24.4195 7.85814H19.5718V6.55814C19.5718 3.44691 17.0069 0.924805 13.8428 0.924805C10.6787 0.924805 8.11371 3.44691 8.11371 6.55814V7.85814H3.26605C3.04279 7.85814 2.85477 8.02232 2.82844 8.24034L0.859411 24.502C0.715578 25.6903 1.57857 26.7682 2.78702 26.9096C2.87361 26.9198 2.96071 26.9249 3.04791 26.9248H24.6398C25.8568 26.9251 26.8435 25.9552 26.8438 24.7586C26.8438 24.6728 26.8386 24.5871 26.8283 24.502H26.8261ZM8.99511 6.55814C8.99511 3.92558 11.1655 1.79147 13.8428 1.79147C16.5201 1.79147 18.6904 3.92558 18.6904 6.55814V7.85814H8.99511V6.55814ZM25.6265 25.6213C25.3761 25.8987 25.0171 26.0576 24.6398 26.0581H3.04791C2.31773 26.0584 1.72565 25.4766 1.72538 24.7586C1.72538 24.7072 1.72846 24.6558 1.73463 24.6047L3.65739 8.7248H8.11371V11.7581C8.11371 11.9974 8.31103 12.1915 8.55441 12.1915C8.79778 12.1915 8.99511 11.9974 8.99511 11.7581V8.7248H18.6904V11.7581C18.6904 11.9974 18.8877 12.1915 19.1311 12.1915C19.3745 12.1915 19.5718 11.9974 19.5718 11.7581V8.7248H24.0281L25.9509 24.6047C25.9955 24.9736 25.8774 25.3436 25.6265 25.6213Z" fill="#01628F"/>
</svg>
