<svg width="22" height="22" viewBox="0 0 22 22" fill="none" xmlns="http://www.w3.org/2000/svg">
<path d="M0.695421 18.1152C0.867265 18.2027 4.95232 20.2581 9.12498 20.2581C10.1809 20.2539 11.2335 20.1495 12.2668 19.9465C12.8398 20.5701 13.5717 21.0492 14.395 21.3397C15.2184 21.6303 16.1068 21.7228 16.9786 21.609C17.8503 21.4951 18.6773 21.1784 19.3836 20.6881C20.0899 20.1978 20.6527 19.5495 21.0203 18.803C21.3879 18.0565 21.5485 17.2357 21.4873 16.4161C21.426 15.5964 21.145 14.8044 20.6699 14.1127C20.1948 13.421 19.5411 12.852 18.7687 12.4579C17.9963 12.0638 17.1302 11.8574 16.25 11.8576C16.1496 11.8576 16.0499 11.8604 15.9509 11.8657C14.7596 10.2026 13.0808 9.0699 11.1643 8.6007C12.0657 8.17296 12.7865 7.4743 13.2104 6.61739C13.6344 5.76049 13.7367 4.79528 13.501 3.87743C13.2653 2.95957 12.7053 2.14258 11.9112 1.55818C11.1171 0.973788 10.1353 0.656066 9.12411 0.65625C8.11291 0.656435 7.13124 0.974516 6.33741 1.5592C5.54359 2.14388 4.98389 2.96109 4.74856 3.87902C4.51323 4.79696 4.61599 5.76213 5.04028 6.61888C5.46457 7.47563 6.18565 8.17403 7.08723 8.60144C5.53286 8.98209 4.12685 9.80061 3.0087 10.9979C1.39095 12.73 0.5 15.1486 0.5 17.8079C0.500001 17.8708 0.518148 17.9325 0.552536 17.9866C0.586924 18.0407 0.636281 18.0851 0.695421 18.1152ZM16.25 12.5576C17.14 12.5576 18.01 12.8039 18.75 13.2655C19.49 13.727 20.0668 14.383 20.4074 15.1505C20.748 15.918 20.8371 16.7625 20.6635 17.5773C20.4899 18.3921 20.0613 19.1405 19.4319 19.7279C18.8026 20.3153 18.0008 20.7154 17.1279 20.8774C16.255 21.0395 15.3502 20.9563 14.5279 20.6384C13.7056 20.3205 13.0028 19.7821 12.5084 19.0914C12.0139 18.4007 11.75 17.5886 11.75 16.7579C11.7513 15.6443 12.2258 14.5766 13.0695 13.7892C13.9131 13.0018 15.0569 12.5589 16.25 12.5576ZM5.37499 4.85712C5.37499 4.16485 5.59492 3.48812 6.00698 2.91251C6.41903 2.3369 7.0047 1.88827 7.68992 1.62334C8.37514 1.35842 9.12914 1.28911 9.85657 1.42416C10.584 1.55922 11.2522 1.89258 11.7766 2.3821C12.3011 2.87161 12.6582 3.49529 12.8029 4.17427C12.9476 4.85324 12.8733 5.55702 12.5895 6.1966C12.3057 6.83618 11.825 7.38284 11.2084 7.76745C10.5917 8.15206 9.86666 8.35734 9.12498 8.35734C8.13077 8.35629 7.1776 7.98718 6.47458 7.33099C5.77157 6.6748 5.37612 5.78512 5.37499 4.85712ZM3.57406 11.4579C5.01977 9.90991 6.99114 9.05739 9.12498 9.05739C11.502 9.05739 13.6578 10.1136 15.1164 11.9729C14.299 12.1413 13.5367 12.4898 12.893 12.9893C12.2493 13.4887 11.743 14.1246 11.4163 14.8439C11.0895 15.5632 10.9519 16.345 11.0148 17.1241C11.0778 17.9032 11.3395 18.6569 11.7781 19.3223C10.9033 19.4761 10.0152 19.555 9.12498 19.558C5.64743 19.558 2.11282 18.0012 1.25197 17.596C1.29748 15.1899 2.11798 13.017 3.57406 11.4579Z" fill="#01628F"/>
</svg>
