<svg width="17" height="17" viewBox="0 0 17 17" fill="none" xmlns="http://www.w3.org/2000/svg">
<path d="M16.1787 14.5535L12.0075 10.3822C12.687 9.35866 13.0449 8.17335 13.0449 6.93726C13.0449 3.49101 10.2412 0.687256 6.79492 0.687256C3.34867 0.687256 0.544922 3.49101 0.544922 6.93726C0.544922 10.3835 3.34867 13.1873 6.79492 13.1873C8.03105 13.1873 9.21636 12.8293 10.2399 12.1498L11.3929 13.3028L14.4111 16.321C14.6473 16.5572 14.9611 16.6873 15.2949 16.6873C15.6287 16.6873 15.9425 16.5572 16.1786 16.3211C16.4148 16.0851 16.5449 15.7712 16.5449 15.4373C16.5449 15.1033 16.4148 14.7894 16.1787 14.5535ZM10.0929 11.4912C9.12833 12.1918 7.98789 12.5623 6.79492 12.5623C3.6933 12.5623 1.16992 10.0389 1.16992 6.93726C1.16992 3.83563 3.6933 1.31226 6.79492 1.31226C9.89655 1.31226 12.4199 3.83563 12.4199 6.93726C12.4199 8.13022 12.0496 9.2706 11.3489 10.2352C10.9984 10.7181 10.5758 11.1407 10.0929 11.4912ZM10.7485 11.7745C11.072 11.5099 11.3676 11.2143 11.6322 10.8909L12.5188 11.7775C12.2492 12.0957 11.9534 12.3915 11.6351 12.6611L10.7485 11.7745ZM15.7368 15.8791C15.6186 15.9972 15.4617 16.0623 15.2949 16.0623C15.1281 16.0623 14.9712 15.9972 14.8531 15.8791L12.0782 13.1043C12.3947 12.8327 12.6903 12.5371 12.9619 12.2206L15.7368 14.9955C15.8549 15.1135 15.9199 15.2703 15.9199 15.4373C15.9199 15.6042 15.8549 15.761 15.7368 15.8791Z" fill="#00628F"/>
<path d="M6.79492 1.93726C4.03789 1.93726 1.79492 4.18022 1.79492 6.93726C1.79492 9.69429 4.03789 11.9373 6.79492 11.9373C9.55195 11.9373 11.7949 9.69429 11.7949 6.93726C11.7949 4.18022 9.55195 1.93726 6.79492 1.93726ZM6.79492 11.3123C4.38255 11.3123 2.41992 9.34963 2.41992 6.93726C2.41992 4.52488 4.38255 2.56226 6.79492 2.56226C9.2073 2.56226 11.1699 4.52488 11.1699 6.93726C11.1699 9.34963 9.2073 11.3123 6.79492 11.3123Z" fill="#00628F"/>
</svg>
