<?xml version="1.0" encoding="iso-8859-1"?>
<!-- Generator: Adobe Illustrator 18.1.1, SVG Export Plug-In . SVG Version: 6.00 Build 0)  -->
<svg version="1.1" id="Capa_1" xmlns="http://www.w3.org/2000/svg" xmlns:xlink="http://www.w3.org/1999/xlink" x="0px" y="0px"
	 viewBox="0 0 290 290" style="enable-background:new 0 0 290 290;" xml:space="preserve">
<g>
	<path id="rect22499" d="M94.902,0.002c-0.667,0.013-1.324,0.159-1.934,0.43l-90,40C1.164,41.234,0,43.024,0,45v240
		c0.001,2.762,2.24,5,5.002,4.999c0.699,0,1.391-0.147,2.03-0.431l88.07-39.143l98.041,39.217c1.253,0.501,2.656,0.474,3.889-0.074
		l90-40c1.805-0.803,2.968-2.593,2.969-4.568V5c-0.001-2.762-2.24-5-5.002-4.999c-0.699,0-1.391,0.147-2.03,0.431l-88.07,39.143
		L96.857,0.357C96.236,0.109,95.571-0.012,94.902,0.002z M97.5,11.384l95,38v109.23l-95-38V11.384z M92.5,11.582V120.64L10,157.306
		V48.248L92.5,11.582z M280,12.693v109.059l-82.5,36.666V49.359L280,12.693z M104.951,22.5c-1.362,0.027-2.451,1.138-2.451,2.5v45
		c-0.02,1.381,1.084,2.516,2.465,2.535c1.381,0.02,2.516-1.084,2.535-2.465c0-0.024,0-0.047,0-0.071V28.691l21.572,8.629
		c1.265,0.554,2.739-0.021,3.294-1.286c0.554-1.265-0.021-2.739-1.286-3.294c-0.05-0.022-0.101-0.042-0.152-0.061l-25-10
		C105.617,22.555,105.285,22.494,104.951,22.5z M50.012,37.484c-0.393,0.003-0.78,0.099-1.129,0.279l-30,15
		C18.035,53.187,17.5,54.052,17.5,55v40c-0.02,1.381,1.084,2.516,2.465,2.535c1.381,0.02,2.516-1.084,2.535-2.465
		c0-0.024,0-0.047,0-0.071V56.545l28.617-14.309c1.244-0.6,1.765-2.095,1.165-3.338C51.862,38.027,50.978,37.477,50.012,37.484z
		 M235.012,37.484c-0.393,0.003-0.78,0.099-1.129,0.279l-30,15c-0.847,0.423-1.383,1.289-1.383,2.236v40
		c-0.02,1.381,1.084,2.516,2.465,2.535c1.381,0.02,2.516-1.084,2.535-2.465c0-0.024,0-0.047,0-0.071V56.545l28.617-14.309
		c1.244-0.6,1.765-2.095,1.165-3.338C236.862,38.027,235.978,37.477,235.012,37.484z M97.5,131.384l95,38v109.23l-95-38V131.384z
		 M92.5,131.582V240.64L10,277.306V168.248L92.5,131.582z M280,132.693V241.75l-82.5,36.668V169.359L280,132.693z M84.963,192.465
		c-1.38,0.02-2.482,1.155-2.463,2.535v38.455l-28.617,14.309c-1.246,0.595-1.774,2.088-1.179,3.334
		c0.595,1.246,2.088,1.774,3.334,1.179c0.027-0.013,0.053-0.026,0.08-0.04l30-15c0.847-0.423,1.383-1.289,1.383-2.236v-40
		c0.019-1.381-1.084-2.516-2.465-2.535C85.011,192.464,84.987,192.464,84.963,192.465z M269.963,192.465
		c-1.38,0.02-2.482,1.155-2.463,2.535v38.455l-28.617,14.309c-1.246,0.595-1.774,2.088-1.179,3.334
		c0.595,1.246,2.088,1.774,3.334,1.179c0.027-0.013,0.053-0.026,0.08-0.04l30-15c0.847-0.423,1.383-1.289,1.383-2.236v-40
		c0.019-1.381-1.084-2.516-2.465-2.535C270.011,192.464,269.987,192.464,269.963,192.465z M184.963,217.465
		c-1.38,0.02-2.482,1.155-2.463,2.535v41.307l-21.572-8.629c-1.272-0.536-2.739,0.06-3.275,1.333s0.06,2.739,1.333,3.275
		c0.029,0.012,0.058,0.024,0.087,0.035l25,10c1.282,0.512,2.737-0.112,3.249-1.394c0.118-0.295,0.178-0.609,0.178-0.926v-45
		c0.019-1.381-1.084-2.516-2.465-2.535C185.011,217.464,184.987,217.464,184.963,217.465z"/>
</g>
<g>
</g>
<g>
</g>
<g>
</g>
<g>
</g>
<g>
</g>
<g>
</g>
<g>
</g>
<g>
</g>
<g>
</g>
<g>
</g>
<g>
</g>
<g>
</g>
<g>
</g>
<g>
</g>
<g>
</g>
</svg>
